<svg width="125" height="118" viewBox="0 0 125 118" fill="none" xmlns="http://www.w3.org/2000/svg">
<mask id="path-1-outside-1_5723_23961" maskUnits="userSpaceOnUse" x="13" y="12" width="99" height="95" fill="black">
<rect fill="white" x="13" y="12" width="99" height="95"/>
<path d="M62.047 98.284C54.2717 98.284 47.2453 96.6077 40.968 93.255C34.762 89.9023 29.8757 85.3013 26.309 79.452C22.8137 73.5313 21.066 66.8973 21.066 59.55C21.066 52.2027 22.8137 45.6043 26.309 39.755C29.8757 33.8343 34.762 29.1977 40.968 25.845C47.2453 22.4923 54.2717 20.816 62.047 20.816C69.8223 20.816 76.813 22.4923 83.019 25.845C89.225 29.1977 94.1113 33.8343 97.678 39.755C101.245 45.6043 103.028 52.2027 103.028 59.55C103.028 66.8973 101.245 73.5313 97.678 79.452C94.1113 85.3013 89.225 89.9023 83.019 93.255C76.813 96.6077 69.8223 98.284 62.047 98.284ZM62.047 83.518C66.4697 83.518 70.4643 82.5193 74.031 80.522C77.5977 78.4533 80.3797 75.6 82.377 71.962C84.4457 68.324 85.48 64.1867 85.48 59.55C85.48 54.9133 84.4457 50.776 82.377 47.138C80.3797 43.5 77.5977 40.6823 74.031 38.685C70.4643 36.6163 66.4697 35.582 62.047 35.582C57.6243 35.582 53.6297 36.6163 50.063 38.685C46.4963 40.6823 43.6787 43.5 41.61 47.138C39.6127 50.776 38.614 54.9133 38.614 59.55C38.614 64.1867 39.6127 68.324 41.61 71.962C43.6787 75.6 46.4963 78.4533 50.063 80.522C53.6297 82.5193 57.6243 83.518 62.047 83.518Z"/>
</mask>
<path d="M62.047 98.284C54.2717 98.284 47.2453 96.6077 40.968 93.255C34.762 89.9023 29.8757 85.3013 26.309 79.452C22.8137 73.5313 21.066 66.8973 21.066 59.55C21.066 52.2027 22.8137 45.6043 26.309 39.755C29.8757 33.8343 34.762 29.1977 40.968 25.845C47.2453 22.4923 54.2717 20.816 62.047 20.816C69.8223 20.816 76.813 22.4923 83.019 25.845C89.225 29.1977 94.1113 33.8343 97.678 39.755C101.245 45.6043 103.028 52.2027 103.028 59.55C103.028 66.8973 101.245 73.5313 97.678 79.452C94.1113 85.3013 89.225 89.9023 83.019 93.255C76.813 96.6077 69.8223 98.284 62.047 98.284ZM62.047 83.518C66.4697 83.518 70.4643 82.5193 74.031 80.522C77.5977 78.4533 80.3797 75.6 82.377 71.962C84.4457 68.324 85.48 64.1867 85.48 59.55C85.48 54.9133 84.4457 50.776 82.377 47.138C80.3797 43.5 77.5977 40.6823 74.031 38.685C70.4643 36.6163 66.4697 35.582 62.047 35.582C57.6243 35.582 53.6297 36.6163 50.063 38.685C46.4963 40.6823 43.6787 43.5 41.61 47.138C39.6127 50.776 38.614 54.9133 38.614 59.55C38.614 64.1867 39.6127 68.324 41.61 71.962C43.6787 75.6 46.4963 78.4533 50.063 80.522C53.6297 82.5193 57.6243 83.518 62.047 83.518Z" fill="#1170FF"/>
<path d="M40.968 93.255L37.1656 100.294L37.1823 100.303L37.1991 100.312L40.968 93.255ZM26.309 79.452L19.4199 83.519L19.4489 83.5682L19.4786 83.6169L26.309 79.452ZM26.309 39.755L19.4564 35.6269L19.449 35.6391L19.4417 35.6514L26.309 39.755ZM40.968 25.845L37.1991 18.7884L37.1823 18.7974L37.1656 18.8064L40.968 25.845ZM97.678 39.755L90.8253 43.8831L90.8364 43.9015L90.8476 43.9199L97.678 39.755ZM97.678 79.452L104.508 83.6169L104.52 83.5985L104.531 83.5801L97.678 79.452ZM83.019 93.255L86.8214 100.294L83.019 93.255ZM74.031 80.522L77.9398 87.502L77.9925 87.4725L78.0448 87.4422L74.031 80.522ZM82.377 71.962L75.4227 68.0076L75.3931 68.0595L75.3644 68.1119L82.377 71.962ZM82.377 47.138L75.3644 50.9881L75.3931 51.0405L75.4227 51.0924L82.377 47.138ZM74.031 38.685L70.0173 45.6053L70.0695 45.6355L70.1222 45.665L74.031 38.685ZM50.063 38.685L53.9718 45.665L54.0245 45.6355L54.0767 45.6052L50.063 38.685ZM41.61 47.138L34.6557 43.1836L34.6261 43.2355L34.5974 43.2879L41.61 47.138ZM41.61 71.962L34.5974 75.8121L34.6261 75.8645L34.6557 75.9164L41.61 71.962ZM50.063 80.522L46.0493 87.4422L46.1015 87.4725L46.1542 87.502L50.063 80.522ZM62.047 90.284C55.4619 90.284 49.7495 88.8756 44.7369 86.1984L37.1991 100.312C44.7412 104.34 53.0814 106.284 62.047 106.284V90.284ZM44.7704 86.2164C39.7717 83.516 35.9463 79.8906 33.1394 75.2871L19.4786 83.6169C23.805 90.7121 29.7523 96.2887 37.1656 100.294L44.7704 86.2164ZM33.1981 75.385C30.4801 70.7811 29.066 65.5686 29.066 59.55H13.066C13.066 68.2261 15.1472 76.2815 19.4199 83.519L33.1981 75.385ZM29.066 59.55C29.066 53.5306 30.4801 48.3706 33.1763 43.8586L19.4417 35.6514C15.1472 42.838 13.066 50.8748 13.066 59.55H29.066ZM33.1616 43.8831C35.9744 39.214 39.796 35.5709 44.7704 32.8836L37.1656 18.8064C29.728 22.8244 23.777 28.4547 19.4564 35.6269L33.1616 43.8831ZM44.7369 32.9016C49.7495 30.2244 55.4619 28.816 62.047 28.816V12.816C53.0814 12.816 44.7412 14.7603 37.1991 18.7884L44.7369 32.9016ZM62.047 28.816C68.6334 28.816 74.2948 30.2247 79.2166 32.8836L86.8214 18.8064C79.3312 14.76 71.0113 12.816 62.047 12.816V28.816ZM79.2166 32.8836C84.191 35.5709 88.0126 39.214 90.8253 43.8831L104.531 35.6269C100.21 28.4547 94.259 22.8244 86.8214 18.8064L79.2166 32.8836ZM90.8476 43.9199C93.5937 48.4234 95.028 53.5614 95.028 59.55H111.028C111.028 50.844 108.896 42.7852 104.508 35.5901L90.8476 43.9199ZM95.028 59.55C95.028 65.5379 93.5936 70.7286 90.8254 75.3239L104.531 83.5801C108.896 76.3341 111.028 68.2567 111.028 59.55H95.028ZM90.8476 75.2871C88.0407 79.8906 84.2153 83.516 79.2166 86.2164L86.8214 100.294C94.2347 96.2887 100.182 90.7121 104.508 83.6169L90.8476 75.2871ZM79.2166 86.2164C74.2948 88.8753 68.6334 90.284 62.047 90.284V106.284C71.0113 106.284 79.3312 104.34 86.8214 100.294L79.2166 86.2164ZM62.047 91.518C67.723 91.518 73.0821 90.2224 77.9398 87.502L70.1222 73.542C67.8465 74.8163 65.2163 75.518 62.047 75.518V91.518ZM78.0448 87.4422C82.8807 84.6374 86.6958 80.7186 89.3896 75.8121L75.3644 68.1119C74.0635 70.4814 72.3146 72.2693 70.0173 73.6017L78.0448 87.4422ZM89.3313 75.9164C92.1573 70.9467 93.48 65.42 93.48 59.55H77.48C77.48 62.9534 76.7341 65.7013 75.4227 68.0076L89.3313 75.9164ZM93.48 59.55C93.48 53.68 92.1573 48.1533 89.3313 43.1836L75.4227 51.0924C76.7341 53.3987 77.48 56.1466 77.48 59.55H93.48ZM89.3896 43.2879C86.6829 38.3577 82.8347 34.4461 77.9398 31.705L70.1222 45.665C72.3606 46.9186 74.0765 48.6423 75.3644 50.9881L89.3896 43.2879ZM78.0447 31.7647C73.1702 28.9375 67.7734 27.582 62.047 27.582V43.582C65.166 43.582 67.7585 44.2952 70.0173 45.6053L78.0447 31.7647ZM62.047 27.582C56.3206 27.582 50.9238 28.9375 46.0493 31.7647L54.0767 45.6052C56.3355 44.2952 58.9281 43.582 62.047 43.582V27.582ZM46.1542 31.705C41.2842 34.4321 37.4269 38.3101 34.6557 43.1836L48.5643 51.0924C49.9305 48.6899 51.7084 46.9325 53.9718 45.665L46.1542 31.705ZM34.5974 43.2879C31.8791 48.239 30.614 53.728 30.614 59.55H46.614C46.614 56.0987 47.3462 53.313 48.6226 50.9881L34.5974 43.2879ZM30.614 59.55C30.614 65.372 31.8791 70.861 34.5974 75.8121L48.6226 68.1119C47.3462 65.787 46.614 63.0013 46.614 59.55H30.614ZM34.6557 75.9164C37.4136 80.7665 41.2379 84.6517 46.0493 87.4422L54.0767 73.6017C51.7548 72.255 49.9437 70.4334 48.5643 68.0076L34.6557 75.9164ZM46.1542 87.502C51.0119 90.2224 56.371 91.518 62.047 91.518V75.518C58.8777 75.518 56.2475 74.8163 53.9718 73.542L46.1542 87.502Z" fill="#1170FF" mask="url(#path-1-outside-1_5723_23961)"/>
<path d="M61.5238 45.6192C77.795 45.6192 89.8666 60.3084 89.8666 76.9605C89.8666 81.3432 89.0639 85.7776 85.8188 88.6074C82.4401 91.5537 78.2498 91.1933 75.6603 90.6967C73.5925 90.3002 71.234 89.5266 69.2386 88.872C68.6786 88.6884 68.1472 88.514 67.6589 88.3601C65.0814 87.5474 63.1074 87.0755 61.5238 87.0755C59.9239 87.0755 57.9387 87.5433 55.3601 88.3409C54.8754 88.4908 54.3493 88.66 53.7956 88.8381C51.7945 89.4816 49.4323 90.2413 47.358 90.6274C44.7712 91.109 40.6081 91.4469 37.245 88.5373C33.9916 85.7226 33.1809 81.3125 33.1809 76.9605C33.1809 60.3084 45.2525 45.6192 61.5238 45.6192Z" fill="white" stroke="#1170FF" stroke-width="11"/>
<ellipse cx="7.84305" cy="9.24912" rx="7.84305" ry="9.24912" transform="matrix(0.766044 -0.642788 0.574849 0.818259 26.9336 45.0039)" fill="white"/>
<ellipse cx="7.84305" cy="9.24912" rx="7.84305" ry="9.24912" transform="matrix(0.766044 0.642788 0.574849 -0.818259 74.8655 51.5537)" fill="white"/>
<ellipse cx="7.70397" cy="9.39415" rx="7.70397" ry="9.39415" transform="matrix(0.951057 -0.309017 0.259317 0.965792 44.4233 31.6206)" fill="white"/>
<ellipse cx="7.70397" cy="9.39415" rx="7.70397" ry="9.39415" transform="matrix(0.951057 0.309017 0.259317 -0.965792 61.4031 45.0049)" fill="white"/>
</svg>
