<svg width="32" height="32" viewBox="0 0 32 32" fill="none" xmlns="http://www.w3.org/2000/svg">
<g clip-path="url(#clip0_2968_4150)">
<circle cx="16" cy="16.0478" r="16" fill="#F693AB"/>
<circle cx="16" cy="16.0478" r="15.5" stroke="#181A1A"/>
<path d="M25.1194 6.95249C22.7725 4.60348 19.6085 3.25438 16.2901 3.18767C12.9716 3.12097 9.75609 4.34184 7.31679 6.59464C4.8775 8.84744 3.40362 11.9574 3.20379 15.2734C3.00397 18.5894 4.09369 21.8541 6.24477 24.384C8.39585 26.9139 11.4415 28.5128 14.7438 28.8458C18.0462 29.1787 21.3493 28.22 23.9613 26.1704C26.5733 24.1207 28.2918 21.1391 28.7568 17.8499C29.2218 14.5607 28.3973 11.2189 26.456 8.52443" stroke="#181A1A" stroke-linecap="round"/>
<g clip-path="url(#clip1_2968_4150)">
<path d="M18.0587 16.2836C17.5503 15.49 16.6841 15.0165 15.7414 15.0165C14.7987 15.0165 13.9329 15.4904 13.424 16.2836L12.1984 18.1958C11.9949 18.5129 11.9012 18.8796 11.9271 19.2555C11.953 19.6314 12.096 19.9817 12.341 20.2682C12.5859 20.5546 12.9095 20.7503 13.2771 20.8341C13.6448 20.9179 14.0211 20.8821 14.3663 20.7304L14.3892 20.72C15.2575 20.3459 16.2499 20.3494 17.1161 20.7304C17.3394 20.8285 17.5762 20.8782 17.8151 20.8782C17.9451 20.8782 18.0756 20.8635 18.2052 20.8341C18.5729 20.7503 18.8964 20.5546 19.1414 20.2682C19.3863 19.9817 19.5293 19.6314 19.5553 19.2555C19.5812 18.8796 19.4874 18.5129 19.284 18.1958L18.0583 16.2841L18.0587 16.2836Z" stroke="#181A1A" stroke-miterlimit="10"/>
<path d="M12.172 15.563C12.4727 15.4476 12.7008 15.2053 12.8149 14.8813C12.9233 14.5728 12.9147 14.2242 12.7898 13.9002C12.665 13.5761 12.4381 13.3117 12.1504 13.1558C11.8484 12.9916 11.5166 12.9648 11.2168 13.0806C10.6133 13.3126 10.3364 14.0583 10.5995 14.7435C10.8099 15.2887 11.2998 15.633 11.7957 15.633C11.9223 15.633 12.0493 15.6105 12.172 15.5634V15.563Z" stroke="#181A1A" stroke-miterlimit="10"/>
<path d="M14.6795 14.1179C15.4338 14.1179 16.0477 13.4185 16.0477 12.5592C16.0477 11.6999 15.4338 11 14.6795 11C13.9252 11 13.3113 11.6994 13.3113 12.5592C13.3113 13.4189 13.9252 14.1179 14.6795 14.1179Z" stroke="#181A1A" stroke-miterlimit="10"/>
<path d="M17.6319 14.5007C17.7481 14.5391 17.8665 14.5577 17.9845 14.5577C18.5349 14.5577 19.071 14.1572 19.2753 13.5416C19.3933 13.1873 19.3855 12.8127 19.2533 12.487C19.1155 12.1457 18.8593 11.8982 18.5331 11.7897C18.2065 11.6813 17.8536 11.7266 17.5386 11.9172C17.2379 12.099 17.0077 12.3945 16.8897 12.7488C16.6413 13.4962 16.974 14.282 17.6315 14.5007H17.6319Z" stroke="#181A1A" stroke-miterlimit="10"/>
<path d="M21.0607 14.5296C20.5406 14.1451 19.7625 14.3114 19.3262 14.9012C18.8903 15.4909 18.9585 16.2832 19.4778 16.6681C19.6675 16.8085 19.8913 16.8755 20.1202 16.8755C20.5194 16.8755 20.935 16.6716 21.2128 16.297C21.6487 15.7073 21.5805 14.915 21.0607 14.53V14.5296Z" stroke="#181A1A" stroke-miterlimit="10"/>
</g>
</g>
<defs>
<clipPath id="clip0_2968_4150">
<rect width="32" height="32" fill="white"/>
</clipPath>
<clipPath id="clip1_2968_4150">
<rect width="12" height="12" fill="white" transform="translate(10 10)"/>
</clipPath>
</defs>
</svg>
